<?xml version="1.0" encoding="utf-8"?>
<!-- Svg Vector Icons : http://www.onlinewebfonts.com/icon -->
<!DOCTYPE svg PUBLIC "-//W3C//DTD SVG 1.1//EN" "http://www.w3.org/Graphics/SVG/1.1/DTD/svg11.dtd">
<svg version="1.1" xmlns="http://www.w3.org/2000/svg" xmlns:xlink="http://www.w3.org/1999/xlink" x="0px" y="0px" viewBox="0 0 1000 1000" enable-background="new 0 0 1000 1000" xml:space="preserve">
<metadata> Svg Vector Icons : http://www.onlinewebfonts.com/icon </metadata>
<g><g transform="translate(0.000000,511.000000) scale(0.100000,-0.100000)"><path fill="#ffd903" d="M4397.6,3173.9l-594.8-1678.7l-1851.4-3.8L100,1485.6L1537,346C2329.4-281.4,2995.1-810.9,3020-833.9l42.2-42.2l-554.5-1697.9c-307-934.3-562.1-1713.3-569.8-1732.5c-7.7-19.2,642.7,404.8,1442.8,940.1c800,537.2,1496.5,1001.5,1546.4,1034.1c76.7,49.9,90.2,67.2,90.2,120.9c1.9,36.5,19.2,149.6,40.3,251.3C5283.9-847.4,6135.8-1.3,7258.1,223.2c191.9,38.4,792.4,46,949.7,11.5l90.2-19.2l801.9,635l800.1,635l-1851.4,5.8l-1851.4,3.8l-594.8,1678.7c-326.2,922.8-596.7,1678.7-602.4,1678.7S4723.7,4096.8,4397.6,3173.9z"/><path fill="#bd0202" d="M7407.8-377.3c-1295-228.3-2089.3-1540.6-1686.4-2780c241.7-740.5,859.5-1283.5,1648-1452.3c147.7-30.7,638.9-30.7,786.6,0c886.4,189.9,1531,834.6,1720.9,1721c30.7,147.7,30.7,638.9,0,786.6c-193.8,909.4-876.8,1573.2-1776.6,1726.7C7893.2-340.9,7613.1-340.9,7407.8-377.3z M8257.7-1607.1l493.1,493.1l197.6-195.7l195.7-197.6L8651-2000.4l-495-495l495-495l493.1-493.1l-195.7-197.6l-197.6-195.7l-493.1,493.1l-495,495l-495-495l-493-493.1L6577-3681.1l-195.7,197.6l493,493.1l495,495l-495,495l-493,493.1l195.7,197.6l197.6,195.7l493-493.1l495-495L8257.7-1607.1z"/></g></g>
</svg>